PathFileType	4	(X/Y/Z)	OpenSim_Sub06_CSBaseline_Magnet.trc
DataRate	CameraRate	NumFrames	NumMarkers	Units	OrigDataRate	OrigDataStartFrame	OrigNumFrames
100	100	13	8	m	100	4247	8492
Frame#	Time	torso_imu_offset_imu	pelvis_imu_offset_imu	tibia_r_imu_offset_imu	femur_r_imu_offset_imu	tibia_l_imu_offset_imu	femur_l_imu_offset_imu	toes_r_imu_offset_imu	toes_l_imu_offset_imu
				X1	Y1	Z1	X2	Y2	Z2	X3	Y3	Z3	X4	Y4	Z4	X5	Y5	Z5	X6	Y6	Z6	X7	Y7	Z7	X8		Y8	Z8	

4247	42.46000000	-0.93680656	-0.20745092	0.08371154	-0.49412418	0.32290301	-0.74646884	-0.32290342	-0.68717158	-0.34307050	-0.82802338	-0.16058011	-0.07973716	-0.61601781	0.54162571	0.20313313	-0.34150828	0.32284408	0.58362962	-0.62379825	-0.52691749	-0.38228149	-0.80249384	-0.05138981	-0.37393990
4248	42.47000000	-0.93883465	-0.21066344	0.08780097	-0.48886894	0.32785166	-0.74971435	-0.35450245	-0.67476199	-0.33445923	-0.82403277	-0.16230489	-0.07984292	-0.61176952	0.55204621	0.19845024	-0.33394406	0.32905356	0.57922894	-0.62294664	-0.50002283	-0.40761705	-0.80459831	-0.05537267	-0.36703742
4249	42.48000000	-0.93744743	-0.21756770	0.09308173	-0.49769468	0.32585366	-0.74946244	-0.38412288	-0.66275287	-0.34225168	-0.82964948	-0.16639992	-0.06408694	-0.61185109	0.55040683	0.20704549	-0.32441794	0.33759429	0.57875501	-0.61152587	-0.48307038	-0.43886052	-0.80464599	-0.05801206	-0.35607848
4250	42.49000000	-0.92866998	-0.21566917	0.09117487	-0.48799583	0.32735278	-0.75160871	-0.41647910	-0.64084210	-0.35237720	-0.82813508	-0.17123633	-0.06473929	-0.60563532	0.56046390	0.20275795	-0.32701186	0.34845980	0.58050002	-0.60325319	-0.45900002	-0.46479157	-0.80494376	-0.05988919	-0.34864544
4251	42.50000000	-0.93158594	-0.21932683	0.08895313	-0.48712272	0.33373349	-0.75453740	-0.44260279	-0.61353769	-0.36058401	-0.82818561	-0.16696977	-0.06356674	-0.60698804	0.56389072	0.20468194	-0.31899432	0.35368630	0.58585921	-0.59396357	-0.43639803	-0.48788014	-0.80014725	-0.06613359	-0.34665761
4252	42.51000000	-0.93674696	-0.22564213	0.08898851	-0.48542767	0.33625653	-0.75450623	-0.47265326	-0.58822936	-0.36354130	-0.82577117	-0.17439639	-0.05827880	-0.60643162	0.56336931	0.19815837	-0.31416676	0.35368558	0.57473303	-0.58196515	-0.40600937	-0.51392039	-0.79978185	-0.07139329	-0.33546901
4253	42.52000000	-0.93006617	-0.23202928	0.09121697	-0.48330357	0.33829614	-0.75526900	-0.49893620	-0.56393791	-0.37273251	-0.82749885	-0.17920842	-0.05843488	-0.58873581	0.57136302	0.20113207	-0.30948258	0.36007253	0.58183888	-0.57598303	-0.37675338	-0.52734422	-0.79795787	-0.06698222	-0.33308262
4254	42.53000000	-0.93179072	-0.23283818	0.09382000	-0.48127622	0.33681337	-0.74548812	-0.52521588	-0.52837853	-0.38206746	-0.82586196	-0.18293449	-0.05145525	-0.58962846	0.58097400	0.20333889	-0.31404380	0.36226962	0.58768000	-0.57011315	-0.34858129	-0.54622938	-0.79356651	-0.07268353	-0.32206196
4255	42.54000000	-0.92814410	-0.23068227	0.09148136	-0.47847362	0.33399640	-0.75402936	-0.55083894	-0.50680209	-0.37197493	-0.82140108	-0.19257609	-0.05272084	-0.58845134	0.58085439	0.20345292	-0.30446891	0.36692463	0.58536958	-0.57068293	-0.31578801	-0.55595539	-0.78836972	-0.07765518	-0.32132052
4256	42.55000000	-0.92754723	-0.23016412	0.09569121	-0.48255023	0.33851996	-0.75053471	-0.57720440	-0.48150898	-0.37270586	-0.81886167	-0.20530446	-0.05259108	-0.58219967	0.59158030	0.20092576	-0.29687399	0.36859891	0.58530870	-0.56960130	-0.28880533	-0.56451142	-0.79070144	-0.07991808	-0.31862169
4257	42.56000000	-0.92789727	-0.23610440	0.09257742	-0.48694082	0.33063734	-0.75140686	-0.59722671	-0.46845316	-0.35876586	-0.81481832	-0.21350631	-0.05214653	-0.57723638	0.59628891	0.19598800	-0.29694180	0.38150001	0.58284856	-0.56798231	-0.25873529	-0.57188180	-0.78231060	-0.08438452	-0.32550580
4258	42.57000000	-0.92292450	-0.24091153	0.08566022	-0.48685936	0.33184198	-0.75474711	-0.61272424	-0.44835624	-0.34934690	-0.80797462	-0.22773463	-0.04952525	-0.57776433	0.60696905	0.19733631	-0.29582971	0.38215988	0.58472431	-0.57091838	-0.22408507	-0.57585150	-0.77506825	-0.08226451	-0.32100151
4259	42.58000000	-0.93104551	-0.23893100	0.08733373	-0.49118707	0.32857009	-0.74756771	-0.62783535	-0.43435020	-0.34529993	-0.80340057	-0.23649378	-0.04886022	-0.56773380	0.61190505	0.19550376	-0.28275524	0.39037659	0.58670665	-0.56983423	-0.19296539	-0.59100500	-0.77252623	-0.08472457	-0.32789535
